HIERARCHY
ROOT Hips
{
	OFFSET 0.00000 0.00000 0.00000
	CHANNELS 6 Xposition Yposition Zposition Zrotation Yrotation Xrotation 
	JOINT LHipJoint
	{
		OFFSET 0 0 0
		CHANNELS 3 Zrotation Yrotation Xrotation
		JOINT LeftHip
		{
			OFFSET 1.98141 -1.79044 0.80905
			CHANNELS 3 Zrotation Yrotation Xrotation
			JOINT LeftKnee
			{
				OFFSET 2.48669 -6.83213 0.00000
				CHANNELS 3 Zrotation Yrotation Xrotation
				JOINT LeftAnkle
				{
					OFFSET 2.68940 -7.38907 0.00000
					CHANNELS 3 Zrotation Yrotation Xrotation
					JOINT LeftToe
					{
						OFFSET 0.12857 -0.35324 2.34549
						CHANNELS 3 Zrotation Yrotation Xrotation
						End Site
						{
							OFFSET 0.00000 -0.00000 1.19593
						}
					}
				}
			}
		}
	}
	JOINT RHipJoint
	{
		OFFSET 0 0 0
		CHANNELS 3 Zrotation Yrotation Xrotation
		JOINT RightHip
		{
			OFFSET -1.80120 -1.79044 0.80905
			CHANNELS 3 Zrotation Yrotation Xrotation
			JOINT RightKnee
			{
				OFFSET -2.77667 -7.62884 0.00000
				CHANNELS 3 Zrotation Yrotation Xrotation
				JOINT RightAnkle
				{
					OFFSET -2.72618 -7.49012 0.00000
					CHANNELS 3 Zrotation Yrotation Xrotation
					JOINT RightToe
					{
						OFFSET -0.15954 -0.43820 2.14670
						CHANNELS 3 Zrotation Yrotation Xrotation
						End Site
						{
							OFFSET -0.00000 -0.00000 1.10438
						}
					}
				}
			}
		}
	}
	JOINT lowerback
	{
		OFFSET 0 0 0
		CHANNELS 3 Zrotation Yrotation Xrotation
		JOINT Chest
		{
			OFFSET -0.00825 2.03905 -0.05153
			CHANNELS 3 Zrotation Yrotation Xrotation
			JOINT Chest2
			{
				OFFSET 0.01521 2.04267 0.00496
				CHANNELS 3 Zrotation Yrotation Xrotation
				JOINT lowerneck
				{
					OFFSET 0 0 0
					CHANNELS 3 Zrotation Yrotation Xrotation
					JOINT Neck
					{
						OFFSET 0.04513 1.36240 0.17993
						CHANNELS 3 Zrotation Yrotation Xrotation
						JOINT Head
						{
							OFFSET -0.04116 1.35857 0.01300
							CHANNELS 3 Zrotation Yrotation Xrotation
							End Site
							{
								OFFSET -0.01884 1.44433 -0.01572
							}
						}
					}
				}
				JOINT LeftCollar
				{
					OFFSET 0 0 0
					CHANNELS 3 Zrotation Yrotation Xrotation
					JOINT LeftShoulder
					{
						OFFSET 2.95523 0.86449 0.36905
CHANNELS 3 Zrotation Xrotation Yrotation
						JOINT LeftElbow
						{
OFFSET 0 -5.828450 -0.000000
CHANNELS 3 Zrotation Xrotation Yrotation
							JOINT LeftWrist
							{
OFFSET 0 -3.496910 0.000000
CHANNELS 3 Zrotation Xrotation Yrotation
								JOINT lhand
								{
									OFFSET 0 0 0
CHANNELS 3 Zrotation Xrotation Yrotation
									JOINT LFingers
									{
OFFSET 0 -0.675000 0.000000
CHANNELS 3 Zrotation Xrotation Yrotation
										End Site
										{
OFFSET 0 -0.544200 0.000000
										}
									}
								}
								JOINT LThumb
								{
OFFSET 0 0.000000 0.000000
CHANNELS 3 Zrotation Xrotation Yrotation
									End Site
									{
OFFSET 0 -0.552510 0.552510
									}
								}
							}
						}
					}
				}
				JOINT RightCollar
				{
					OFFSET 0 0 0
					CHANNELS 3 Zrotation Yrotation Xrotation
					JOINT RightShoulder
					{
						OFFSET -3.41586 0.85389 0.25405
CHANNELS 3 Zrotation Xrotation Yrotation
						JOINT RightElbow
						{
OFFSET 0 -5.458590 0.000000
CHANNELS 3 Zrotation Xrotation Yrotation
							JOINT RightWrist
							{
OFFSET 0 -3.584910 0.000000
CHANNELS 3 Zrotation Xrotation Yrotation
								JOINT rhand
								{
									OFFSET 0 0 0
CHANNELS 3 Zrotation Xrotation Yrotation
									JOINT RFingers
									{
OFFSET 0 -0.683730 0.000000
CHANNELS 3 Zrotation Xrotation Yrotation
										End Site
										{
OFFSET 0 -0.551240 0.000000
										}
									}
								}
								JOINT RThumb
								{
OFFSET 0 0.000000 0.000000
CHANNELS 3 Zrotation Xrotation Yrotation
									End Site
									{
OFFSET 0 -0.559660 0.559660
									}
								}
							}
						}
					}
				}
			}
		}
	}
}
MOTION
Frames: 10
Frame Time: 0.008333333333333333
-3.064362 18.765245 -29.878653 132.237743 -71.388551 -145.691885 0.000000 0.000000 0.000000 -11.946937 -7.470617 -33.028939 0.000000 0.000000 0.000000 -0.347726 11.504355 1.037731 0.360414 3.616156 10.029328 0.000000 0.000000 0.000000 15.818331 12.968572 9.106584 -3.922698 -12.056363 35.932306 0.270638 11.031397 -2.500040 -2.036229 -8.937471 25.602418 3.666886 5.553193 3.924638 3.649318 6.929382 8.294671 1.891397 3.412897 6.457595 10.816270 24.349361 0.354257 -1.072985 32.801347 15.438531 0.567086 16.519389 6.590004 0.000000 0.000000 0.000000 91.934807 18.197749 37.629222 19.302342 -29.792659 5.180222 49.111688 4.116436 -47.545877 0.000000 0.000000 0.000000 -7.125000 0.000000 0.000000 -2.811316 -1.040466 -177.236708 0.000000 0.000000 0.000000 -16.891844 42.698931 65.942005 -18.135862 -28.329407 -4.614205 12.383251 7.937794 -33.263633 0.000000 0.000000 0.000000 7.125000 0.000000 0.000000 24.213243 -1.462618 27.371113
-3.160090 18.497183 -30.050099 138.340184 -74.597434 -150.945447 0.000000 0.000000 0.000000 -15.877506 -7.799813 -26.454985 0.008789 0.313533 0.861955 -0.671969 14.689174 -2.063312 0.989299 6.167674 17.320060 0.000000 0.000000 0.000000 19.512442 11.211244 6.210540 -4.842198 -13.202728 40.134104 0.277897 13.265386 -5.253096 -0.083623 -1.809124 4.979660 3.188021 5.726516 2.476621 3.935982 7.167868 7.534805 2.548308 3.510452 6.361273 9.832642 24.074022 1.025854 -1.438943 32.453311 13.275286 0.220966 16.322290 5.674753 0.000000 0.000000 0.000000 82.577504 15.426256 42.595229 18.753603 -29.111356 4.910391 52.311458 6.731252 -48.203974 0.000000 0.000000 0.000000 -7.125000 0.000000 0.000000 -176.405905 1.370759 3.513709 0.000000 0.000000 0.000000 -16.390383 38.628140 64.644837 -17.735058 -27.816454 -4.424970 12.742615 9.756746 -35.365761 0.000000 0.000000 0.000000 7.125000 0.000000 0.000000 24.271487 -3.426780 28.282869
-3.208519 18.099639 -30.256103 140.605197 -78.617313 -152.538469 0.000000 0.000000 0.000000 -20.333973 -3.586416 -28.705661 1.564682 7.868024 22.326824 -0.004099 3.204382 2.077371 0.441182 -4.261296 -11.813016 0.000000 0.000000 0.000000 22.065626 7.821026 2.080979 -6.129122 -14.551193 45.495679 0.474703 15.871201 -5.167921 -0.805288 -5.705738 15.938612 2.794315 5.351041 1.378960 2.810821 6.798520 6.555896 1.631747 3.370650 6.028315 9.379266 23.576501 0.892714 -1.656169 31.666813 10.508350 -0.092117 15.913938 4.734261 0.000000 0.000000 0.000000 72.402359 10.541186 40.854213 17.748799 -27.834130 4.431361 51.639728 3.388825 -49.615775 0.000000 0.000000 0.000000 -7.125000 0.000000 0.000000 -177.288989 2.178822 2.609377 0.000000 0.000000 0.000000 -14.634170 34.880708 65.908172 -20.455315 -31.185151 -5.766167 9.162498 4.395885 -37.564625 0.000000 0.000000 0.000000 7.125000 0.000000 0.000000 22.448576 -5.510686 26.534900
-3.113720 17.799362 -30.499424 142.729063 -83.161078 -153.254406 0.000000 0.000000 0.000000 -19.990079 -0.166978 -27.098680 5.227212 13.618401 41.762188 0.014892 1.600628 -3.344627 0.717233 -5.410375 -15.083232 0.000000 0.000000 0.000000 25.259047 5.643533 -2.568499 -7.175189 -15.477519 49.533601 0.544037 16.494186 -4.894195 -1.856178 -8.559833 24.427765 1.329721 5.105055 0.351431 2.035054 6.611527 5.330973 1.638372 3.257084 5.229388 8.535941 22.821879 1.245982 -2.436450 30.634359 6.518099 -0.730755 15.370131 3.700074 0.000000 0.000000 0.000000 59.809959 4.028778 29.720543 17.820139 -27.925995 4.464766 48.376089 -1.633524 -52.419034 0.000000 0.000000 0.000000 -7.125000 0.000000 0.000000 -73.841746 2.908601 0.362395 0.000000 0.000000 0.000000 -14.992269 32.025514 70.584927 -23.631019 -34.771383 -7.495274 4.837680 -4.744284 -38.562262 0.000000 0.000000 0.000000 7.125000 0.000000 0.000000 20.325566 -6.615813 24.012273
-2.960985 17.613228 -30.646364 156.427705 -89.148915 -166.247893 0.000000 0.000000 0.000000 -16.223124 3.722248 -22.962104 9.259270 16.968387 56.977584 0.188953 4.282638 -10.919886 0.859685 -5.869151 -16.417008 0.000000 0.000000 0.000000 28.796521 1.923650 -6.207983 -7.564686 -15.789549 50.979082 0.548750 16.193853 -4.397724 -1.830960 -8.503824 24.255805 1.841889 4.587872 0.757670 1.014203 6.009096 4.237386 0.189838 3.015815 4.024550 9.230659 22.200672 1.764033 -3.507967 29.804582 2.600276 -1.494072 14.933861 2.494179 0.000000 0.000000 0.000000 45.115249 -1.609621 11.110774 19.604222 -30.161708 5.331519 45.739547 -6.430472 -54.471690 0.000000 0.000000 0.000000 -7.125000 0.000000 0.000000 178.645235 3.507689 -1.275060 0.000000 0.000000 0.000000 -15.744298 27.994306 74.265261 -23.427191 -34.552358 -7.379214 5.335299 -8.380675 -39.759577 0.000000 0.000000 0.000000 7.125000 0.000000 0.000000 20.578112 -7.720781 24.700322
-2.773189 17.565625 -30.770737 158.824833 -96.134795 -167.145740 0.000000 0.000000 0.000000 -11.976377 4.981460 -18.342190 11.408108 18.128741 64.099535 0.406278 4.281244 -14.385146 0.948256 -6.178829 -17.311576 0.000000 0.000000 0.000000 31.293372 -0.817027 -10.176136 -7.585512 -15.805719 51.055545 0.128709 14.756401 -8.827218 -0.650289 -5.149434 14.337156 0.573833 3.879444 1.152630 0.313585 5.139677 2.956108 0.052522 2.564861 2.411015 9.124682 21.346899 1.900775 -4.480642 28.645162 -0.458549 -2.063676 14.325108 1.517957 0.000000 0.000000 0.000000 30.696675 -4.544717 -13.454064 22.276546 -33.284173 6.738758 36.346900 -10.836030 -61.426457 0.000000 0.000000 0.000000 -7.125000 0.000000 0.000000 173.081711 6.443299 -6.141487 0.000000 0.000000 0.000000 -19.064357 23.219682 76.465889 -22.230281 -33.235802 -6.711843 17.049836 0.280946 -40.715873 0.000000 0.000000 0.000000 7.125000 0.000000 0.000000 25.995685 -8.516517 32.889710
-2.628436 17.608793 -30.876665 167.650442 -103.693982 -174.101337 0.000000 0.000000 0.000000 -9.868555 6.581077 -14.424459 11.694563 18.258484 65.017298 0.290813 5.579691 -13.766946 0.454010 -4.290313 -11.900101 0.000000 0.000000 0.000000 32.087540 -3.020226 -13.360223 -7.173074 -15.475710 49.525495 -0.451312 12.722366 -13.957196 -0.016686 -0.767968 2.110998 -2.191834 3.462274 0.733175 -0.128393 4.611688 2.231165 1.120461 2.262068 1.716690 9.418433 20.234761 1.221701 -6.404692 27.084722 -2.431172 -2.774349 13.526186 1.225216 0.000000 0.000000 0.000000 18.960193 -4.222533 -35.357665 27.855635 -38.977789 10.034775 29.485293 -14.245838 -59.630231 0.000000 0.000000 0.000000 -7.125000 0.000000 0.000000 171.719427 3.199165 -7.889868 0.000000 0.000000 0.000000 -23.704363 18.659602 77.986724 -21.930453 -32.898343 -6.548040 12.056246 1.107770 -43.384105 0.000000 0.000000 0.000000 7.125000 0.000000 0.000000 23.696512 -10.930797 30.191876
-2.454841 17.592357 -31.008039 169.047209 -114.338093 -173.488053 0.000000 0.000000 0.000000 -6.916437 7.012555 -13.656722 11.840482 18.322346 65.482238 0.225321 4.308054 -11.605651 0.174686 -2.686342 -7.407123 0.000000 0.000000 0.000000 34.263673 -5.559590 -17.340054 -6.636201 -15.017609 47.484435 -1.149642 9.752460 -19.331629 -0.032177 1.154544 -3.174154 -2.225190 2.702156 0.847664 -0.606895 3.592736 1.446330 0.617711 1.772711 0.909951 8.407856 18.543498 0.506639 -6.787819 24.691874 -4.407559 -2.993733 12.318543 0.444207 0.000000 0.000000 0.000000 14.598156 -3.194692 -52.503947 35.905610 -45.438077 15.458436 32.220513 -14.933516 -58.201851 0.000000 0.000000 0.000000 -7.125000 0.000000 0.000000 173.013859 2.482347 -6.728244 0.000000 0.000000 0.000000 -25.587901 14.607975 76.378020 -20.747562 -31.531766 -5.917684 7.541417 -0.860217 -42.898952 0.000000 0.000000 0.000000 7.125000 0.000000 0.000000 21.653808 -10.580171 27.077186
-2.275104 17.599457 -31.164491 172.377738 -126.361795 -175.407067 0.000000 0.000000 0.000000 -6.906376 6.389324 -12.667490 11.117821 17.991977 63.163134 0.116759 7.106884 -12.492117 0.083843 -1.862509 -5.126044 0.000000 0.000000 0.000000 34.818400 -7.821848 -21.010337 -6.272069 -14.686865 46.063874 -1.989591 6.281424 -25.422845 -0.027327 1.050616 -2.888072 -4.070843 2.222585 0.942554 -0.122243 2.939548 1.214200 2.133423 1.438058 0.520712 8.070030 16.209408 -0.928239 -7.090255 21.472337 -3.957134 -3.074028 10.696113 0.599866 0.000000 0.000000 0.000000 14.013431 -4.474776 -67.044592 44.253190 -50.393165 21.663074 35.484043 -15.291624 -56.901680 0.000000 0.000000 0.000000 -7.125000 0.000000 0.000000 174.484840 2.134911 -5.331087 0.000000 0.000000 0.000000 -26.544563 11.218861 72.549956 -18.778958 -29.142327 -4.923082 5.744441 -1.116145 -39.963116 0.000000 0.000000 0.000000 7.125000 0.000000 0.000000 20.777860 -7.890543 25.025720
-2.059039 17.622210 -31.277348 174.543289 -138.548063 -176.938306 0.000000 0.000000 0.000000 -8.020108 7.965307 -11.070712 9.046323 16.833243 56.243857 0.177383 9.339037 -16.040585 0.199446 2.763343 7.627214 0.000000 0.000000 0.000000 34.677650 -9.472350 -23.789493 -6.053170 -14.479633 45.194680 -2.912047 1.620338 -31.919523 -0.036008 1.172809 -3.225106 -4.737437 2.008497 0.989719 0.171356 2.647338 1.113807 2.806233 1.293068 0.367932 7.008549 13.349123 -2.691055 -5.851109 17.595729 -2.280273 -2.546629 8.743555 0.924158 0.000000 0.000000 0.000000 15.755257 -6.438638 -76.388246 53.018861 -54.138617 28.604456 38.858042 -15.728571 -56.014693 0.000000 0.000000 0.000000 -7.125000 0.000000 0.000000 175.879212 2.346499 -3.959276 0.000000 0.000000 0.000000 -24.980948 8.760094 66.613855 -16.577135 -26.296559 -3.898318 3.634370 0.196306 -41.130819 0.000000 0.000000 0.000000 7.125000 0.000000 0.000000 19.784138 -9.119615 24.034869
